<svg width="58" height="68" viewBox="0 0 58 68" fill="none" xmlns="http://www.w3.org/2000/svg">
<path d="M0.711172 23.156H3.84317V3.644H0.711172V0.799998H4.88717L22.2752 19.628L22.9592 20.564L22.8512 19.412V3.644H20.2592V0.799998H28.9712V3.644H25.8392V27.152L7.40717 7.568L6.72317 6.632L6.83117 7.784V23.156H9.42317V26H0.711172V23.156ZM31.508 13.436C31.508 11.684 31.844 10.028 32.516 8.468C33.188 6.884 34.1 5.504 35.252 4.328C36.428 3.152 37.796 2.228 39.356 1.556C40.916 0.86 42.584 0.512 44.36 0.512C46.112 0.512 47.768 0.86 49.328 1.556C50.912 2.228 52.292 3.152 53.468 4.328C54.644 5.504 55.568 6.884 56.24 8.468C56.936 10.028 57.284 11.684 57.284 13.436C57.284 15.212 56.936 16.88 56.24 18.44C55.568 20 54.644 21.368 53.468 22.544C52.292 23.696 50.912 24.608 49.328 25.28C47.768 25.952 46.112 26.288 44.36 26.288C42.584 26.288 40.916 25.952 39.356 25.28C37.796 24.608 36.428 23.696 35.252 22.544C34.1 21.368 33.188 20 32.516 18.44C31.844 16.88 31.508 15.212 31.508 13.436ZM34.496 13.436C34.496 14.828 34.748 16.136 35.252 17.36C35.78 18.56 36.488 19.616 37.376 20.528C38.288 21.416 39.344 22.124 40.544 22.652C41.744 23.18 43.028 23.444 44.396 23.444C45.764 23.444 47.048 23.18 48.248 22.652C49.448 22.124 50.492 21.416 51.38 20.528C52.292 19.616 53 18.56 53.504 17.36C54.032 16.136 54.296 14.828 54.296 13.436C54.296 12.044 54.032 10.748 53.504 9.548C53 8.324 52.292 7.256 51.38 6.344C50.492 5.432 49.448 4.712 48.248 4.184C47.048 3.656 45.764 3.392 44.396 3.392C43.028 3.392 41.744 3.656 40.544 4.184C39.344 4.712 38.288 5.432 37.376 6.344C36.488 7.256 35.78 8.324 35.252 9.548C34.748 10.748 34.496 12.044 34.496 13.436ZM10.678 36.8H19.354V58.76C19.354 60.104 19.126 61.292 18.67 62.324C18.238 63.356 17.638 64.22 16.87 64.916C16.102 65.636 15.178 66.188 14.098 66.572C13.042 66.956 11.902 67.16 10.678 67.184V64.34C12.334 64.244 13.69 63.716 14.746 62.756C15.826 61.796 16.366 60.428 16.366 58.652V39.644H10.678V36.8ZM32.1466 58.652V54.476H34.9906V57.68C35.6146 58.16 36.3586 58.58 37.2226 58.94C38.0866 59.276 39.0586 59.444 40.1386 59.444C40.7626 59.444 41.3626 59.36 41.9386 59.192C42.5146 59 43.0186 58.736 43.4506 58.4C43.9066 58.04 44.2666 57.596 44.5306 57.068C44.7946 56.54 44.9266 55.928 44.9266 55.232C44.9266 53.984 44.6386 53.024 44.0626 52.352C43.4866 51.68 42.7666 51.164 41.9026 50.804C41.0386 50.42 40.1026 50.096 39.0946 49.832C38.0866 49.568 37.1386 49.208 36.2506 48.752C35.3866 48.296 34.6546 47.66 34.0546 46.844C33.4786 46.028 33.1786 44.876 33.1546 43.388C33.1306 42.596 33.2386 41.804 33.4786 41.012C33.7186 40.22 34.1146 39.5 34.6666 38.852C35.2186 38.204 35.9506 37.676 36.8626 37.268C37.7746 36.86 38.8906 36.656 40.2106 36.656C40.6426 36.656 41.1106 36.68 41.6146 36.728C42.1186 36.776 42.6466 36.872 43.1986 37.016C43.7506 37.16 44.3146 37.376 44.8906 37.664C45.4906 37.952 46.0786 38.336 46.6546 38.816V42.344H43.8106V40.22C43.3546 40.028 42.8266 39.86 42.2266 39.716C41.6266 39.572 40.9666 39.5 40.2466 39.5C38.8546 39.5 37.8226 39.896 37.1506 40.688C36.4786 41.48 36.1426 42.416 36.1426 43.496C36.1426 44.216 36.3106 44.804 36.6466 45.26C36.9826 45.692 37.4266 46.064 37.9786 46.376C38.5306 46.664 39.1546 46.916 39.8506 47.132C40.5706 47.348 41.2906 47.588 42.0106 47.852C42.7546 48.092 43.4746 48.392 44.1706 48.752C44.8906 49.088 45.5266 49.544 46.0786 50.12C46.6306 50.672 47.0746 51.368 47.4106 52.208C47.7466 53.024 47.9146 54.044 47.9146 55.268C47.9146 56.348 47.7106 57.32 47.3026 58.184C46.9186 59.048 46.3786 59.792 45.6826 60.416C45.0106 61.016 44.2186 61.484 43.3066 61.82C42.3946 62.132 41.4346 62.288 40.4266 62.288C39.5146 62.288 38.6266 62.192 37.7626 62C36.8986 61.784 36.1066 61.508 35.3866 61.172C34.6666 60.836 34.0186 60.452 33.4426 60.02C32.8906 59.588 32.4586 59.132 32.1466 58.652Z" fill="black"/>
</svg>
