<?xml version="1.0" standalone="no"?>
<!DOCTYPE svg PUBLIC "-//W3C//DTD SVG 20010904//EN"
 "http://www.w3.org/TR/2001/REC-SVG-20010904/DTD/svg10.dtd">
<svg version="1.0" xmlns="http://www.w3.org/2000/svg"
 width="700.000000pt" height="700.000000pt" viewBox="0 0 700.000000 700.000000"
 preserveAspectRatio="xMidYMid meet">
<metadata>
Created by potrace 1.11, written by Peter Selinger 2001-2013
</metadata>
<g transform="translate(0.000000,700.000000) scale(0.100000,-0.100000)"
fill="#000000" stroke="none">
<path d="M0 3500 l0 -3500 3500 0 3500 0 0 3500 0 3500 -3500 0 -3500 0 0
-3500z m6870 0 l0 -3370 -3370 0 -3370 0 0 3370 0 3370 3370 0 3370 0 0 -3370z"/>
<path d="M4413 5716 c-329 -63 -588 -287 -691 -599 -100 -302 -43 -601 164
-858 93 -116 275 -233 434 -279 107 -31 298 -38 411 -16 422 85 721 446 720
870 0 132 -19 227 -70 346 -110 256 -316 436 -588 515 -110 32 -274 41 -380
21z m291 -201 c236 -50 428 -227 512 -470 24 -69 28 -96 28 -200 1 -138 -15
-210 -69 -320 -87 -176 -252 -309 -447 -361 -82 -22 -243 -23 -324 -1 -162 42
-308 142 -396 270 -151 220 -169 479 -52 717 113 228 350 377 604 379 41 0
106 -6 144 -14z"/>
<path d="M1542 5613 l3 -98 108 -3 107 -3 0 -674 0 -675 -110 0 -110 0 0 -95
0 -95 305 0 305 0 0 95 0 95 -90 0 -89 0 -3 568 c-2 312 -3 568 -2 570 1 1 12
-13 25 -32 13 -19 308 -336 654 -703 l630 -669 3 808 2 808 110 0 110 0 0 100
0 100 -300 0 -300 0 0 -100 0 -100 85 0 85 0 0 -527 c0 -291 3 -553 6 -583 l6
-55 -28 37 c-16 20 -297 327 -624 682 l-595 645 -148 1 -148 0 3 -97z"/>
<path d="M4141 3529 c-69 -13 -166 -64 -219 -113 -90 -84 -132 -191 -132 -336
0 -140 28 -216 107 -294 69 -68 129 -99 317 -161 196 -64 251 -91 310 -155 51
-55 76 -123 76 -210 0 -116 -54 -203 -156 -255 -49 -25 -72 -30 -152 -33 -112
-5 -183 8 -267 50 -119 60 -115 54 -115 179 l0 109 -95 0 -95 0 0 -147 c0
-140 1 -147 25 -179 34 -45 153 -121 243 -156 386 -150 751 3 812 342 22 119
-6 277 -66 372 -68 108 -172 171 -425 257 -167 56 -195 69 -244 113 -52 45
-68 82 -68 158 -1 117 68 223 166 256 61 20 226 15 305 -10 l52 -17 0 -74 0
-75 100 0 100 0 0 123 0 122 -48 32 c-72 49 -152 82 -237 98 -83 16 -223 18
-294 4z"/>
<path d="M2232 3433 l3 -98 198 -3 198 -2 -3 -703 -3 -702 -24 -59 c-46 -115
-163 -205 -299 -230 l-67 -12 -3 -98 -3 -98 68 7 c265 28 458 185 518 420 13
51 15 177 15 867 l0 808 -300 0 -301 0 3 -97z"/>
</g>
</svg>
